<svg version="1.1" xmlns="http://www.w3.org/2000/svg" style="display: block;" viewBox="0 0 2048 2048" width="1024" height="1024" preserveAspectRatio="none">
<path transform="translate(0,0)" fill="rgb(0,0,0)" d="M 0 0 L 2048 0 L 2048 2048 L 0 2048 L 0 0 z"/>
<path transform="translate(0,0)" fill="rgb(254,254,254)" d="M 1603.1 553.258 C 1642.22 548.545 1660.45 569.829 1651.49 607.753 C 1641.92 648.236 1612.97 675.67 1583.37 702.497 C 1569.6 714.985 1555.82 727.844 1542.16 740.498 L 1406.19 867.548 L 1289.75 977.481 C 1281.66 985.148 1256.3 1011.66 1248.48 1016.5 L 1246.24 1015.23 C 1226.69 996.774 1208.83 977.051 1189.39 958.484 C 1209.55 935.751 1234.8 910.708 1255.95 888.348 L 1400.43 734.913 L 1483.86 645.123 C 1504.31 622.893 1525.95 597.305 1549.22 578.429 C 1564.75 565.601 1583.29 556.939 1603.1 553.258 z"/>
<path transform="translate(0,0)" fill="rgb(254,254,254)" d="M 1449.74 394.356 C 1500.16 390.088 1502.27 433.932 1486.51 469.066 C 1470.47 504.818 1443.22 527.145 1415.18 553.139 L 1345.29 617.742 C 1261.51 695.708 1171.5 778.473 1090.5 858.896 L 1085.34 853.988 C 1067.19 836.385 1049.24 818.093 1031.12 800.319 C 1036.78 793.344 1046.27 784.004 1052.68 777.222 L 1092.23 735.353 L 1221.76 598.16 L 1324.47 488.033 C 1359.17 450.565 1395.81 400.742 1449.74 394.356 z"/>
<path transform="translate(0,0)" fill="rgb(254,254,254)" d="M 605.558 397.166 C 609.189 397.06 613.079 397.591 616.567 398.609 C 622.408 400.315 628.92 403.92 633.817 407.527 C 649.684 419.213 734.453 501.091 740.789 514.168 C 743.592 519.953 742.528 524.959 740.63 530.828 L 1555.05 1344.58 L 1564.2 1334.52 C 1577.6 1346.74 1595.28 1365.5 1608.54 1378.58 C 1618.06 1370.29 1627.04 1361.29 1636.07 1352.46 C 1640.85 1357.08 1645.78 1362.27 1650.48 1367.04 C 1639.76 1378.71 1626.22 1391.43 1614.84 1402.95 C 1622.26 1416.54 1637.16 1437.86 1646.09 1452.37 C 1636.31 1447.54 1625.54 1440.32 1616.25 1434.37 C 1609.62 1430.19 1602.93 1426.11 1596.17 1422.13 C 1584.13 1434.2 1572.2 1446.37 1560.38 1458.65 L 1545.65 1444.03 C 1554.66 1433.74 1562.35 1425.86 1572.04 1416.32 C 1558.95 1403.55 1539.41 1384.99 1527.61 1371.47 C 1530.82 1368.55 1534.49 1365.56 1537.82 1362.72 C 1524.22 1349.63 1510.24 1334.87 1496.75 1321.42 L 1382.69 1207.36 L 1046.36 870.661 L 829.12 653.971 C 794.713 619.648 756.582 583.102 723.494 548.058 C 721.67 548.364 719.826 548.533 717.977 548.565 C 703.293 548.868 690.115 532.45 679.716 522.617 C 679.133 524.56 678.508 526.49 677.842 528.405 C 672.232 544.289 655.949 552.534 640.622 544.625 C 600.372 523.857 570.729 456.171 586.322 412.964 C 589.404 404.425 597.501 399.798 605.558 397.166 z"/>
<path transform="translate(0,0)" fill="rgb(0,0,0)" d="M 608.068 411.103 C 612.217 411.552 613.239 411.508 617.039 413.003 C 622.07 419.69 595.718 432.464 608.277 448.03 C 626.247 470.3 647.705 489.873 667.731 510.377 C 666.734 517.533 666.243 519.655 663.952 526.504 C 637.027 566.919 565.557 426.594 608.068 411.103 z"/>
<path transform="translate(0,0)" fill="rgb(254,254,254)" d="M 433.771 581.395 C 450.785 579.53 474.359 586.593 491.324 594.201 C 511.685 603.332 558.482 633.518 546.739 662.146 C 543.072 671.088 532.229 676.377 523.194 679.605 C 536.18 692.355 550.74 702.431 548.1 722.385 C 586.894 763.395 632.101 806.503 672.436 846.844 L 911.631 1086.27 L 1197.99 1372.35 C 1252.05 1426.45 1308.11 1484.15 1362.91 1537.03 L 1372.06 1526.62 C 1385.41 1539.02 1403.59 1558.16 1415.88 1571.47 L 1444.09 1545.37 L 1458.5 1560.09 C 1447.16 1571.62 1432.89 1584.11 1422.41 1595.91 C 1426.42 1604.28 1447.74 1636.14 1453.92 1645.87 L 1445.53 1641.15 C 1436.15 1635.16 1411.66 1618.28 1403.21 1614.37 L 1367.46 1650.12 C 1362.81 1645.54 1358.19 1640.94 1353.59 1636.31 C 1361.98 1626.73 1370.72 1617.47 1379.81 1608.56 C 1365.52 1593.74 1350.12 1578.67 1335.56 1564.05 L 1345.89 1555.06 L 846.922 1055.45 L 634.716 844.138 C 602.188 811.622 561.979 773.534 531.256 740.129 C 519.407 746.192 509.3 738.029 500.927 729.66 C 473.332 702.078 445.416 674.726 418.785 646.21 C 410.296 637.119 400.526 624.629 398.491 611.991 C 395.363 588.992 415.396 583.381 433.771 581.395 z"/>
<path transform="translate(0,0)" fill="rgb(0,0,0)" d="M 432.093 595.291 C 455.748 593.784 479.835 602.612 500.397 614.588 C 510.4 620.415 542.755 642.634 532.589 658.02 C 528.262 664.569 518.366 666.143 510.946 667.482 L 505.644 662.317 C 489.119 646.505 471.763 628.967 455.197 613.081 C 432.238 591.066 422.676 618.69 415.518 619.183 C 412.52 617.229 412.252 617.374 410.787 614.011 C 410.182 601.111 421.535 596.808 432.093 595.291 z"/>
<path transform="translate(0,0)" fill="rgb(254,254,254)" d="M 774.277 1054.99 C 778.568 1057.71 780.568 1059.45 782.38 1064.01 C 782.126 1067.97 782.805 1066.22 779.988 1069.33 C 776.201 1070.86 773.269 1069.49 769.113 1068.42 C 741.195 1078.75 747.068 1110.47 724.72 1127.03 C 713.749 1135.16 703.298 1149.04 698.785 1162.13 C 694.131 1175.62 704.799 1189.24 718.251 1192.2 C 742.129 1195.51 758.444 1165.5 774.718 1153.49 C 783.94 1146.68 799.942 1143.63 809.417 1136.04 C 821.751 1126.86 818.001 1122.68 820.438 1108.7 C 825.858 1106.73 829.948 1108.95 832.668 1113.65 C 832.482 1116.89 833.041 1116.24 830.718 1118.85 C 820.339 1130.54 809.353 1142.01 798.639 1153.38 L 738.191 1217.5 L 550.768 1417.62 C 534.041 1435.3 517.136 1453.42 500.281 1470.85 C 473.768 1498.53 441.234 1504.32 412.797 1475.47 C 394.112 1456.51 388.552 1429.58 404.644 1407.47 C 420.773 1385.32 447.113 1361.92 467.055 1343.11 L 561.383 1255.26 L 727.15 1099.96 C 742.711 1085.42 758.882 1068.89 774.277 1054.99 z"/>
<path transform="translate(0,0)" fill="rgb(254,254,254)" d="M 932.759 1213.7 C 937.1 1216.36 941.445 1220.7 941.053 1226.17 C 939.09 1228.99 940.35 1227.98 937.07 1229.25 C 912.628 1224.39 908.77 1243.5 899.776 1261.47 C 898.011 1265 896.915 1271.1 894.457 1274.13 C 881.523 1290.09 857.067 1303.52 856.499 1326.89 C 856.359 1333.19 858.783 1339.28 863.217 1343.75 C 888.5 1369.05 916.285 1325.54 932.953 1312.38 C 942.955 1304.49 962.3 1302.49 972.572 1291.04 C 982.048 1280.47 974.105 1275.49 980.348 1266.8 C 986.617 1263.81 988.312 1269.02 991.255 1274.12 C 990.318 1278.16 908.339 1363.37 899.112 1373.12 L 708.5 1577.05 C 690.363 1595.33 674.168 1614.9 654.975 1632.6 C 625.969 1659.35 595.693 1661.54 568.392 1630.88 C 546.649 1606.47 549.913 1579.65 570.613 1556.22 C 590.141 1534.07 612.004 1514.41 633.477 1494.25 L 739.315 1395.5 L 889.811 1254.59 C 903.794 1241.67 919.126 1225.48 932.759 1213.7 z"/>
<path transform="translate(0,0)" fill="rgb(254,254,254)" d="M 767.226 1040.06 C 782.366 1039.19 786.046 1043.42 795.693 1054.11 C 804.201 1052.05 809.57 1050.26 817.857 1047.29 C 826.413 1055.28 834.128 1062.55 842.254 1070.99 C 838.667 1079.37 837.032 1084.09 834.512 1092.85 C 864.638 1122.43 844.965 1126.76 826.788 1155.35 C 825.743 1156.99 826.891 1158.02 827.7 1159.98 C 821.893 1170.29 807.543 1189.76 800.129 1199.87 C 795.917 1201.64 794.208 1202.86 789.854 1202.41 C 786.042 1200.31 787.25 1201.78 785.605 1198.31 C 786.5 1185.11 806.633 1162.82 815.152 1151.98 C 817.772 1148.64 816.32 1151.64 820.992 1151.83 C 825.237 1147.89 833.672 1135.54 837.666 1130.23 C 843.832 1121.21 846.202 1115.14 838.75 1105.92 C 829.374 1094.57 814.104 1101.74 801.25 1100.07 C 784.504 1097.91 789.312 1072.05 792.237 1060.31 C 777.631 1036.38 762.578 1048.31 746.344 1062.45 C 734.842 1072.48 741.565 1067.14 739.105 1074.46 C 728.972 1083.65 717.024 1092.21 706.07 1100.5 C 701.114 1104.25 695.146 1107.5 689.368 1104.1 C 683.196 1093 702.116 1081.6 709.699 1076.02 C 715.616 1071.66 723.3 1065.54 729.54 1062.22 C 736.456 1065.19 738.725 1060.56 744.481 1055.65 C 752.49 1048.81 757.436 1044.38 767.226 1040.06 z"/>
<path transform="translate(0,0)" fill="rgb(254,254,254)" d="M 929.385 1198.22 C 942.921 1199.61 945.798 1203.64 954.603 1213.55 C 963.289 1211.25 968.27 1209.82 976.553 1206.5 C 984.311 1213.58 993.008 1222.41 1000.31 1229.9 C 997.509 1236.72 994.822 1243.59 992.252 1250.5 C 996.548 1256.42 1005.67 1263.24 1007.47 1269.84 C 1012.55 1288.46 992.417 1300.79 984.476 1315.42 L 985.925 1317.7 C 985.833 1318.04 985.46 1319.58 985.109 1319.97 C 978.491 1327.4 957.916 1369.5 945.855 1360.57 C 941.372 1351.69 948.655 1342.6 954.068 1335.74 C 960.394 1327.72 967.805 1315.12 976.006 1309.14 C 977.925 1310.2 977.395 1309.97 979.584 1310.64 C 985.823 1303.98 992.869 1293.4 998.31 1285.75 C 1008.11 1269.53 991.639 1250.37 974.613 1259.9 C 971.964 1261.38 954.434 1257.49 951.215 1256.01 C 949.18 1255.08 948.416 1239.46 946.691 1234.95 C 949.797 1224.18 952.596 1218.87 943.165 1209.74 C 929.946 1196.95 905.969 1218.01 897.007 1228.19 C 897.269 1230.05 897.485 1230.41 898.284 1232.09 C 894.441 1236.51 860.468 1263.56 852.714 1264.2 C 849.429 1264.47 849.338 1264.01 847.183 1262.4 C 841.681 1248.61 876.93 1227.08 887.273 1221.56 C 886.995 1221.53 892.857 1222.49 891.795 1223.2 C 905.323 1214.17 912.344 1201.67 929.385 1198.22 z"/>
<path transform="translate(0,0)" fill="rgb(254,254,254)" d="M 926.476 1236.87 C 946.831 1235.93 935.291 1251.32 943.227 1261.61 C 949.579 1269.85 971.435 1262.07 969.515 1277.68 C 967.496 1294.09 934.391 1297.69 923.874 1307.63 C 914.931 1316.08 909.317 1324.72 900.107 1332.3 C 887.636 1341.85 864.743 1349.55 865.794 1324.18 C 866.518 1306.68 892.532 1293.2 900.867 1280.88 C 910.49 1266.65 911.211 1248.8 926.476 1236.87 z"/>
<path transform="translate(0,0)" fill="rgb(254,254,254)" d="M 768.195 1077.78 C 788.531 1077.21 776.867 1091.55 785.064 1102.78 C 789.653 1109.06 806.948 1106.39 809.494 1111.29 C 820.739 1132.93 776.222 1137.49 765.949 1148.33 C 756.027 1158.49 750.701 1165.83 742.089 1173.3 C 736.416 1177.61 729.376 1182.76 722.128 1182.95 C 715.416 1183.18 705.223 1177.45 706.437 1169.54 C 709.746 1147.96 729.17 1137.14 742.383 1122.4 C 744.166 1120.41 747.984 1111.03 749.196 1108.25 C 754.477 1096.13 757.756 1086.67 768.195 1077.78 z"/>
<path transform="translate(0,0)" fill="rgb(254,254,254)" d="M 1169.33 1015.17 C 1174.8 1019.7 1186.21 1031.39 1192.24 1036.9 C 1168.51 1064.89 1185.21 1061.17 1175.11 1093.94 C 1173.82 1097.66 1171.38 1104.02 1167.49 1105.38 C 1162.36 1107.17 1156.3 1100.58 1155.62 1095.67 C 1154.72 1089.26 1155.63 1084.01 1153.48 1077.07 C 1143.2 1055.93 1128.35 1050.89 1107.11 1049.12 C 1103.14 1048.79 1100.83 1042.95 1099.34 1039.63 C 1122.94 1017.11 1131.36 1035 1155.89 1024.78 C 1158.59 1023.66 1166.56 1017.34 1169.33 1015.17 z"/>
<path transform="translate(0,0)" fill="rgb(254,254,254)" d="M 1009.36 856.764 C 1014.08 858.616 1028.29 873.749 1032.69 878.263 C 1020.48 895.477 1019.39 898.19 1020.07 919.963 C 1020.32 927.846 1016.24 947.888 1005.01 946.428 C 993.288 939.946 998.962 928.498 994.544 916.578 C 987.713 904.497 975.532 893.31 960.965 892.104 C 948.551 891.075 945.914 892.039 941.67 880.299 C 966.827 858.53 973.827 875.809 998.914 865.309 C 1000.76 864.535 1007.4 858.531 1009.36 856.764 z"/>
<path transform="translate(0,0)" fill="rgb(254,254,254)" d="M 1146.11 1101.75 L 1147.14 1102.25 C 1148.18 1105.09 1150.34 1107.56 1152.18 1110.02 L 1152.02 1111.11 C 1133.03 1130.23 1114.08 1149.39 1095.13 1168.54 C 1082.24 1181.56 1069.38 1194.61 1056.97 1208.09 C 1056.48 1208.12 1055.99 1208.16 1055.5 1208.19 C 1051.43 1204.89 1048.24 1201.47 1044.58 1197.74 C 1071.05 1170.87 1098.03 1144.03 1124.99 1117.66 C 1132.1 1110.71 1138.24 1109.57 1146.11 1101.75 z"/>
<path transform="translate(0,0)" fill="rgb(254,254,254)" d="M 987.769 943.418 L 994.962 951.277 C 971.023 973.486 947.974 999.191 924.591 1022.1 C 916.988 1029.54 904.22 1044.38 896.851 1050.31 L 886.411 1040.14 C 903.035 1022.6 919.939 1005.32 937.117 988.326 C 947.423 977.993 958.168 967.011 968.841 957.123 C 973.693 952.627 980.395 949.793 986.736 944.326 L 987.769 943.418 z"/>
<path transform="translate(0,0)" fill="rgb(254,254,254)" d="M 938.171 895.029 C 940.48 896.984 943.674 898.625 946.34 900.157 C 945.653 900.862 944.966 901.568 944.279 902.273 C 936.764 909.411 935.528 917.618 928.052 925.439 C 913.735 940.415 898.93 954.893 884.27 969.535 C 874.327 979.148 859.799 995.154 849.854 1003.3 C 846.236 999.84 842.622 996.056 839.097 992.477 C 870.757 959.776 906.569 928.679 938.171 895.029 z"/>
<path transform="translate(0,0)" fill="rgb(254,254,254)" d="M 1096.2 1053.78 C 1097.36 1054.39 1102.68 1058.33 1104.08 1059.31 C 1093.85 1070.29 1094.54 1075.88 1085.08 1085.5 C 1059.84 1111.19 1033.76 1136.45 1008.31 1161.96 L 997.558 1150.9 C 1009.21 1138.73 1024.23 1124.93 1036.55 1112.95 C 1056.63 1093.42 1076.51 1073.69 1096.2 1053.78 z"/>
<path transform="translate(0,0)" fill="rgb(254,254,254)" d="M 958.865 899.636 C 970.623 900.295 989.117 916.17 988.086 928.856 C 987.615 934.644 977.308 941.782 972.724 945.39 C 967.382 945.382 947.661 923.036 943.58 918.119 C 948.534 910.216 952.244 906.011 958.865 899.636 z"/>
<path transform="translate(0,0)" fill="rgb(254,254,254)" d="M 1117.95 1057.96 C 1127.62 1060.7 1135.34 1066.59 1141.64 1074.33 C 1153.85 1089.32 1140.78 1095.9 1129.58 1104.22 C 1125.41 1102.39 1105.88 1081.71 1101.61 1077.34 C 1106.43 1069.8 1110.28 1062.8 1117.95 1057.96 z"/>
<path transform="translate(0,0)" fill="rgb(254,254,254)" d="M 928.851 967.79 C 931.961 970.48 935.794 974.338 938.862 977.239 C 922.618 995.003 898.997 1017.22 881.626 1034.62 C 878.629 1032.12 874.553 1027.66 871.721 1024.75 C 883.938 1010.3 914.698 981.417 928.851 967.79 z"/>
<path transform="translate(0,0)" fill="rgb(254,254,254)" d="M 1070.34 1109.64 C 1073.44 1110.58 1077.72 1116.21 1079.95 1118.8 C 1064.99 1135.84 1039.94 1160.42 1023.42 1176.28 C 1020.25 1173.92 1016.07 1169.47 1013.13 1166.56 C 1032.06 1147.44 1051.13 1128.47 1070.34 1109.64 z"/>
<path transform="translate(0,0)" fill="rgb(254,254,254)" d="M 912.001 950.575 C 915.177 952.035 919.21 957.531 921.546 960.368 C 903.229 979.937 883.853 998.856 865.149 1018.23 L 855.093 1008.69 C 872.888 989.398 893.362 969.184 912.001 950.575 z"/>
<path transform="translate(0,0)" fill="rgb(254,254,254)" d="M 1086.62 1126.74 C 1090.84 1129.04 1093.7 1132.2 1097.21 1135.53 C 1083.13 1151.47 1056.3 1176.52 1040.54 1192.25 L 1039.61 1192.46 C 1035.93 1190 1033.17 1186.32 1030.24 1182.94 C 1048.68 1164.78 1067.9 1143.93 1086.62 1126.74 z"/>
<path transform="translate(0,0)" fill="rgb(254,254,254)" d="M 1151.47 998.033 C 1154.51 1000.35 1159.58 1005.56 1162.5 1008.38 C 1156.86 1013.59 1153.76 1017.09 1146.25 1019.19 C 1141.06 1019.14 1136.96 1018.69 1131.84 1018.17 C 1138.2 1011.44 1144.99 1004.68 1151.47 998.033 z"/>
<path transform="translate(0,0)" fill="rgb(254,254,254)" d="M 1039.08 885.64 C 1043.06 888.139 1046.73 892.509 1050.04 896.007 C 1045.96 900.799 1039.64 906.964 1035.12 911.616 L 1029.34 918.097 C 1029.21 912.249 1029.22 906.264 1029.18 900.402 C 1032.6 894.211 1034.84 891.276 1039.08 885.64 z"/>
<path transform="translate(0,0)" fill="rgb(254,254,254)" d="M 1197.58 1044.54 C 1201.11 1046.79 1205.71 1051.64 1208.85 1054.7 C 1204.19 1059.79 1198.4 1065.35 1193.47 1070.3 L 1187.73 1076.55 C 1187.15 1059.11 1186.65 1057.89 1197.58 1044.54 z"/>
<path transform="translate(0,0)" fill="rgb(254,254,254)" d="M 992.826 839.708 C 995.125 841.333 1001.6 847.493 1004.02 849.677 C 998.484 854.823 995.139 858.199 987.87 860.262 L 973.281 859.821 C 979.009 853.396 986.701 845.962 992.826 839.708 z"/>
<path transform="translate(0,0)" fill="rgb(254,254,254)" d="M 848.541 1079.36 C 852.394 1081.51 856.714 1086.12 860.022 1089.29 L 853.476 1096.35 C 852.581 1097.19 852.245 1097.15 851.032 1097.66 C 848.152 1096.25 846.356 1092.82 844.477 1090.02 L 848.541 1079.36 z"/>
<path transform="translate(0,0)" fill="rgb(254,254,254)" d="M 1007.54 1238.44 C 1011.15 1240.79 1014.83 1244.64 1018.02 1247.67 L 1011.21 1255.42 L 1009.78 1256.4 C 1006.7 1255.37 1004.56 1251.96 1002.41 1249.28 C 1003.86 1245.44 1005.68 1242.09 1007.54 1238.44 z"/>
<path transform="translate(0,0)" fill="rgb(254,254,254)" d="M 958.715 1188.56 C 961.856 1190.33 967.202 1194.7 968.369 1198.48 C 966.082 1201.45 965.545 1200.83 961.268 1202.36 C 958.826 1202.97 957.426 1202.32 954.754 1201.8 C 949.591 1196.17 954.31 1192.76 958.715 1188.56 z"/>
<path transform="translate(0,0)" fill="rgb(254,254,254)" d="M 800.9 1029.82 C 803.902 1032.31 808.751 1035.58 809.843 1039 C 808.096 1042.1 807.555 1041.42 803.264 1043.15 C 799.577 1043.62 798.467 1043.05 795.319 1041.73 C 791.432 1035.89 796.394 1032.99 800.9 1029.82 z"/>
</svg>